<?xml version="1.0" encoding="UTF-8" standalone="no"?>
<!-- Created with Inkscape (http://www.inkscape.org/) -->

<svg
   width="1024"
   height="300"
   viewBox="0 0 270.93333 79.375"
   version="1.1"
   id="svg1"
   inkscape:version="1.4.2 (ebf0e940d0, 2025-05-08)"
   sodipodi:docname="aptitek.svg"
   inkscape:export-filename="aptitek.png"
   inkscape:export-xdpi="96"
   inkscape:export-ydpi="96"
   xmlns:inkscape="http://www.inkscape.org/namespaces/inkscape"
   xmlns:sodipodi="http://sodipodi.sourceforge.net/DTD/sodipodi-0.dtd"
   xmlns="http://www.w3.org/2000/svg"
   xmlns:svg="http://www.w3.org/2000/svg">
  <sodipodi:namedview
     id="namedview1"
     pagecolor="#505050"
     bordercolor="#ffffff"
     borderopacity="1"
     inkscape:showpageshadow="0"
     inkscape:pageopacity="0"
     inkscape:pagecheckerboard="1"
     inkscape:deskcolor="#505050"
     inkscape:document-units="mm"
     inkscape:zoom="0.64113914"
     inkscape:cx="355.61704"
     inkscape:cy="400.84903"
     inkscape:window-width="2560"
     inkscape:window-height="1379"
     inkscape:window-x="2160"
     inkscape:window-y="1230"
     inkscape:window-maximized="1"
     inkscape:current-layer="g137" />
  <defs
     id="defs1" />
  <g
     inkscape:label="Layer 1"
     inkscape:groupmode="layer"
     id="layer1">
    <g
       id="g137"
       transform="matrix(2.8615328,0,0,2.8615328,492.2471,-1090.092)">
      <path
         style="font-weight:normal;font-size:25.4px;font-family:Milkshake;-inkscape-font-specification:Milkshake;fill:#268bd2;stroke-width:0.264583"
         d="m -143.31923,403.0119 c 2.5146,0 4.3688,-3.1242 4.3688,-3.1242 0,0 0.2286,-0.381 0.2286,-0.6096 0,-0.2794 -0.254,-0.508 -0.5334,-0.508 -0.3048,0 -0.508,0.3556 -0.508,0.3556 0,0 -1.3462,2.1844 -2.7178,2.1844 -0.762,0 -1.4478,-0.508 -1.4478,-1.6764 0,-0.7366 0.127,-1.651 0.3302,-2.6416 1.6002,-0.3048 3.1242,-2.0828 3.1242,-2.5654 0,-0.2032 -0.127,-0.3048 -0.2286,-0.3048 -0.3048,0 -1.0922,0.635 -2.032,0.635 h -0.3048 c 1.143,-3.9116 2.9972,-8.1788 3.6576,-9.017 0.4318,-0.508 0.6096,-0.6858 0.6096,-0.8382 0,-0.254 -0.254,-0.35559 -0.762,-0.35559 -0.5334,0 -1.3462,0.12699 -2.0574,0.55879 -0.1778,-0.1524 -0.9906,-0.73659 -2.032,-0.73659 -2.6416,0 -4.6736,2.56539 -7.7978,7.67079 -2.1844,-0.8636 -4.4704,-1.6256 -6.8072,-1.6256 -3.8354,0 -6.3246,2.6162 -6.3246,5.9182 0,3.5052 3.175,6.6802 6.1722,6.6802 4.0132,0 5.5118,-3.3782 8.4328,-8.5852 1.2446,0.6604 2.3622,1.3462 3.4036,1.8542 -0.254,1.143 -0.381,2.2352 -0.381,3.2258 0,2.0828 1.7018,3.5052 3.6068,3.5052 z m -15.6464,-2.5654 c -1.7526,0 -3.2004,-1.27 -3.2004,-3.1242 0,-2.8956 2.2098,-4.8006 5.842,-4.8006 1.4478,0 2.8194,0.3556 4.1148,0.8636 -2.8702,4.7498 -4.3434,7.0612 -6.7564,7.0612 z m 9.8298,-7.4422 c 2.8956,-5.1054 4.2418,-7.1882 6.0706,-7.1882 0.254,0 0.4064,0.0508 0.5588,0.1016 -1.2446,2.2606 -2.6162,5.2578 -3.5052,8.255 -1.016,-0.3048 -2.0574,-0.7366 -3.1242,-1.1684 z"
         id="path130" />
      <path
         style="font-style:italic;font-weight:500;font-size:22.5778px;font-family:'Recursive Sans Casual Static';-inkscape-font-specification:'Recursive Sans Casual Static Medium Italic';letter-spacing:-1.24619px;word-spacing:-0.0105833px;fill:#2aa198;stroke-width:0.264583"
         d="m -138.13296,390.6562 c 0.22577,0.58703 0.18062,1.28694 0.0226,2.16747 -0.76764,4.42525 -2.59644,7.49583 -3.43182,11.94366 -0.27094,1.39982 0.38382,2.50613 1.64818,2.50613 0.15804,0 0.33866,-0.0226 0.49671,-0.0677 0.11289,-2.21262 0.65476,-4.19947 1.30951,-6.14116 l 0.13547,-0.0226 c 0.49671,0.90311 1.55787,1.96427 3.02542,1.96427 2.91254,0 4.96712,-2.19005 6.2089,-6.97654 l 0.13547,-0.54187 c 0.67733,-2.66418 -0.33867,-5.03485 -2.41583,-5.03485 -1.60302,0 -3.34151,1.44498 -4.6736,3.3641 l -0.13547,-0.0677 c 0.0226,-0.0677 0.0226,-0.13546 0.0452,-0.2032 0.51929,-2.28036 -0.27093,-3.048 -1.39982,-3.048 -0.36124,0 -0.65476,0.0451 -0.97084,0.15804 z m 6.34436,2.25778 c 0.47413,0 0.83538,0.22578 1.03858,0.67734 -0.0226,0.65475 -0.13547,1.30951 -0.38383,2.21262 l -0.11289,0.38382 c -0.79022,3.00285 -2.07715,4.5833 -4.064,4.5833 -1.08373,0 -1.80622,-0.31609 -2.32551,-1.016 0.38382,-1.08374 0.76764,-2.19005 1.12889,-3.34152 1.76107,-2.50613 3.20605,-3.49956 4.71876,-3.49956 z"
         id="path131" />
      <path
         style="font-style:italic;font-weight:normal;font-size:26.8111px;font-family:Milkshake;-inkscape-font-specification:'Milkshake Italic';word-spacing:-0.0105833px;fill:#859900;stroke-width:0.264583"
         d="m -123.6389,401.22967 c -0.77753,0 -1.42099,-0.58984 -1.42099,-1.39418 0,-1.93039 0.99201,-4.93324 1.87678,-7.31943 h 1.66228 c 0.34855,0 0.80434,-0.67027 0.80434,-0.93838 0,-0.16087 -0.0804,-0.2413 -0.21449,-0.2413 h -1.79635 c 0.4826,-1.31375 0.88477,-2.25214 0.88477,-2.49344 0,-0.4826 -1.28693,-1.60866 -2.09127,-1.60866 -0.32173,0 -0.58984,0.21449 -0.7239,0.50941 -0.4826,0.85795 -1.01882,2.14489 -1.55504,3.59269 h -0.53622 c -0.37536,0 -0.80433,0.67027 -0.80433,0.93838 0,0.16087 0.0804,0.2413 0.21448,0.2413 h 0.7239 c -0.93838,2.78836 -1.71591,5.84482 -1.71591,7.31943 0,1.87678 2.11808,3.19053 3.80718,3.19053 2.6543,0 4.61151,-3.29777 4.61151,-3.29777 0,0 0.2413,-0.40217 0.2413,-0.64347 0,-0.29492 -0.26811,-0.53622 -0.56303,-0.53622 -0.32174,0 -0.53623,0.37536 -0.53623,0.37536 0,0 -1.42098,2.30575 -2.86878,2.30575 z"
         id="path132" />
      <path
         style="font-style:italic;font-weight:normal;font-size:26.8111px;font-family:Milkshake;-inkscape-font-specification:'Milkshake Italic';word-spacing:-0.0105833px;fill:#b58900;stroke-width:0.264583"
         d="m -117.71367,400.21085 c 0,-2.60068 1.50142,-4.79919 1.50142,-6.40785 0,-0.40217 -1.31374,-1.52824 -2.11807,-1.52824 -0.32174,0 -0.58985,0.21449 -0.7239,0.50942 -0.64347,1.50142 -2.09127,5.36222 -2.09127,7.29261 0,1.74273 1.36737,2.94923 3.40501,2.94923 2.6543,0 4.61151,-3.29777 4.61151,-3.29777 0,0 0.2413,-0.40217 0.2413,-0.64347 0,-0.29492 -0.26811,-0.53622 -0.56303,-0.53622 -0.32174,0 -0.53622,0.37536 -0.53622,0.37536 0,0 -1.42099,2.30575 -2.86879,2.30575 -0.53622,0 -0.85796,-0.40216 -0.85796,-1.01882 z"
         id="path133"
         sodipodi:nodetypes="ssscsscsscss" />
      <path
         style="font-style:italic;font-weight:normal;font-size:26.8111px;font-family:Milkshake;-inkscape-font-specification:'Milkshake Italic';word-spacing:-0.0105833px;fill:#cb4b16;stroke-width:0.264583"
         d="m -109.56309,401.22967 c -0.77752,0 -1.42098,-0.58984 -1.42098,-1.39418 0,-1.93039 0.99201,-4.93324 1.87677,-7.31943 h 1.66229 c 0.34854,0 0.80433,-0.67027 0.80433,-0.93838 0,-0.16087 -0.0804,-0.2413 -0.21449,-0.2413 h -1.79634 c 0.4826,-1.31375 0.88477,-2.25214 0.88477,-2.49344 0,-0.4826 -1.28694,-1.60866 -2.09127,-1.60866 -0.32173,0 -0.58984,0.21449 -0.7239,0.50941 -0.4826,0.85795 -1.01882,2.14489 -1.55504,3.59269 h -0.53622 c -0.37536,0 -0.80434,0.67027 -0.80434,0.93838 0,0.16087 0.0804,0.2413 0.21449,0.2413 h 0.7239 c -0.93839,2.78836 -1.71591,5.84482 -1.71591,7.31943 0,1.87678 2.11808,3.19053 3.80718,3.19053 2.6543,0 4.61151,-3.29777 4.61151,-3.29777 0,0 0.2413,-0.40217 0.2413,-0.64347 0,-0.29492 -0.26811,-0.53622 -0.56304,-0.53622 -0.32173,0 -0.53622,0.37536 -0.53622,0.37536 0,0 -1.42099,2.30575 -2.86879,2.30575 z"
         id="path134" />
      <path
         style="font-style:italic;font-weight:500;font-size:22.5778px;font-family:'Recursive Sans Casual Static';-inkscape-font-specification:'Recursive Sans Casual Static Medium Italic';word-spacing:-0.0105833px;fill:#dc322f;stroke-width:0.264583"
         d="m -100.62506,390.453 c -3.07058,0 -5.87023,1.85138 -6.86365,5.71219 l -0.0903,0.29351 c -0.97085,3.68018 1.06115,6.54756 5.12516,6.54756 1.38886,0 2.31761,-0.18162 3.043392,-0.5626 0.265299,-0.13926 0.06188,-0.83508 0.2855,-1.02848 0.474134,-0.4064 1.23182,-0.32803 1.457598,-1.18599 0.06773,-0.31609 0.06873,-0.33778 0.06873,-0.74418 h -0.135466 c -0.127896,0.0944 -0.209575,-0.10928 -0.334208,-0.0224 -1.305476,0.90964 -2.478646,1.3988 -4.498436,1.3988 -0.97085,0 -1.71591,-0.13547 -2.50614,-0.47413 -0.45155,-0.74507 -0.56444,-1.78365 -0.36124,-2.82223 h 0.13546 c 0.49672,0.36125 1.55787,0.63218 2.91254,0.63218 3.115738,0 5.238051,-1.08374 5.779918,-3.22863 l 0.04516,-0.18062 c 0.474133,-1.94169 -0.970846,-4.33494 -4.064008,-4.33494 z m 0.0677,2.14489 c 0.63218,0 1.061159,0.0903 1.512715,0.27094 0.225778,0.38382 0.316089,0.90311 0.112889,1.71591 -0.338667,1.26436 -1.535294,2.09974 -4.334934,2.09974 -0.74507,0 -1.30952,-0.0677 -1.85138,-0.24836 0.88053,-2.61902 2.68676,-3.83823 4.56071,-3.83823 z"
         id="path136"
         sodipodi:nodetypes="sccssccccsscccsccsssccscs" />
      <path
         id="path107-7"
         style="font-weight:bold;font-size:25.4px;font-family:Milkshake;-inkscape-font-specification:'Milkshake Bold';fill:#d33682;stroke-width:0.264583"
         d="m -90.540963,382.35916 c -0.09575,0.005 -0.187888,0.0809 -0.177767,0.20103 0.02761,0.36446 -0.205318,0.97264 -0.619084,1.66604 -0.413767,0.69341 -0.994165,1.47978 -1.613338,2.26343 -1.038245,1.45681 -2.437936,2.68369 -3.325378,4.24677 -0.09128,0.30001 0.310735,0.33471 0.557072,0.43822 0.112158,-0.0908 0.254713,-0.14521 0.409277,-0.14521 0.357822,0 0.65164,0.29226 0.65164,0.65009 0,0.35782 -0.293818,0.65164 -0.65164,0.65164 -0.357823,0 -0.65164,-0.29382 -0.65164,-0.65164 0,-0.0209 0.0011,-0.0416 0.0031,-0.062 -0.264784,-0.087 -0.557015,-0.34566 -0.634587,-0.21549 -1.057577,1.77493 -2.037283,4.91643 -1.906344,7.47448 0.0019,0.0437 0.01929,0.0843 0.04754,0.11576 l -0.211357,-0.0956 a 0.35718751,0.35718751 0 0 0 -0.472839,0.17776 0.35718751,0.35718751 0 0 0 0.177767,0.47284 l 0.556038,0.25115 -0.56379,1.06247 -0.459403,0.21859 -0.478007,2.63395 c 0,0 -0.0327,0.15387 0.10852,0.21859 0.141225,0.0647 0.26355,-0.0734 0.26355,-0.0734 l 1.634009,-2.15233 -0.109037,-0.51418 0.587561,-0.94929 0.442867,0.19998 a 0.35718751,0.35718751 0 0 0 0.472839,-0.17725 0.35718751,0.35718751 0 0 0 -0.179834,-0.47283 l -0.151928,-0.0687 c 0.04097,-0.002 0.08079,-0.018 0.112654,-0.0465 0.493704,-0.44174 1.373528,-1.08921 2.187464,-1.75183 0.813937,-0.66262 1.566462,-1.31963 1.836063,-1.90842 0.01655,-0.0367 0.02084,-0.078 0.01189,-0.1173 -0.053,-0.23503 -0.103243,-0.43947 -0.146761,-0.61753 0.412646,-0.2658 1.057521,-0.70074 1.363741,-0.70074 0.3556,0 0.58446,0.20307 0.58446,0.71107 0,2.0066 -3.632336,2.94654 -3.632336,3.63234 0,1.5748 2.819495,4.08915 4.648295,4.08915 2.463801,0 4.368725,-3.12384 4.368725,-3.12384 0,0 0.22841,-0.38118 0.22841,-0.60978 0,-0.2794 -0.253901,-0.50798 -0.533301,-0.50798 -0.3048,0 -0.507979,0.35554 -0.507979,0.35554 0,0 -1.016054,1.62574 -2.489254,1.62574 -1.5748,0 -2.971911,-1.85413 -2.971911,-2.36213 0,0 4.038513,-1.70202 4.038513,-3.60702 0,-1.0414 -0.838105,-1.95595 -1.701705,-1.95595 -0.705888,0 -1.369225,0.22297 -1.777669,0.39429 0.21482,-0.373 0.413968,-0.75081 0.595829,-1.13275 h 1.632975 a 0.19329733,0.19329733 0 0 0 0.181901,-0.1266 l 0.586528,-1.63505 c 0.0049,1.1e-4 0.01007,0 0.01499,0 0.371663,0 0.675411,-0.3058 0.675411,-0.67747 0,-0.37166 -0.303748,-0.678 -0.675411,-0.678 -0.371663,0 -0.677995,0.30634 -0.677995,0.678 0,0.22977 0.116901,0.43426 0.294039,0.55707 l -0.536401,1.49758 h -1.3193 c 0.172026,-0.38882 0.325721,-0.78162 0.459921,-1.17771 0.303371,-0.8954 -1.709458,0.37286 -1.781287,-0.43459 -0.07183,-0.80745 1.908804,-0.25813 2.152323,-1.01286 0.264051,-0.81836 0.340838,-1.66964 0.306958,-2.48254 h 0.8816 a 0.193278,0.193278 0 0 0 0.03617,0.0842 l 0.840259,1.10123 a 0.19329733,0.19329733 0 0 0 0.153995,0.0765 h 0.302824 v 0.2899 h 0.966866 v -0.96634 h -0.966866 v 0.2899 h -0.207222 l -0.666109,-0.8754 h 2.125451 v 0.40256 l 1.028878,-0.59583 -1.028878,-0.59376 v 0.40049 h -2.847371 l 0.430981,-0.64079 h 0.765845 c 0.07957,0.22529 0.294321,0.38706 0.546737,0.38706 0.320068,0 0.579809,-0.25974 0.579809,-0.57981 0,-0.32007 -0.259742,-0.57981 -0.579809,-0.57981 -0.246661,0 -0.464337,0.16112 -0.545703,0.38602 h -0.868164 c -0.06435,1.5e-4 -0.124407,0.0323 -0.160197,0.0858 l -0.609266,0.90433 c -0.0079,0.0116 -0.01447,0.0241 -0.01964,0.0372 h -0.184484 c -0.144194,-1.7109 -0.740373,-3.19345 -1.037146,-3.74706 -0.03338,-0.0695 -0.09371,-0.10245 -0.15503,-0.10542 -0.0064,-3.1e-4 -0.01274,-3.3e-4 -0.01912,0 z m -0.340031,3.32021 c 0.438642,0 0.798918,0.35822 0.798918,0.79686 0,0.43321 -0.35112,0.79016 -0.782381,0.79891 a 0.35718751,0.35718751 0 0 1 -0.02791,0.0661 l -6.595463,12.07833 a 0.35718751,0.35718751 0 0 1 -0.0041,0.007 l -0.648539,-0.29352 a 0.35718751,0.35718751 0 0 1 0.02532,-0.0574 l 6.59598,-12.07627 a 0.35718751,0.35718751 0 0 1 0.01499,-0.0253 c -0.109676,-0.13684 -0.175183,-0.31009 -0.175183,-0.49764 0,-0.43864 0.359759,-0.79686 0.798401,-0.79686 z m 0,0.38706 c -0.229732,0 -0.411861,0.18007 -0.411861,0.4098 0,0.15354 0.08149,0.28616 0.204122,0.35708 a 0.35718751,0.35718751 0 0 1 0.05374,0.0238 0.35718751,0.35718751 0 0 1 0.01189,0.007 c 0.04426,0.016 0.09192,0.0243 0.14211,0.0243 0.229731,0 0.412378,-0.18213 0.412378,-0.41186 0,-0.22973 -0.182647,-0.40979 -0.412378,-0.40979 z m 2.677356,3.29386 c 0.162753,0 0.288872,0.12819 0.288871,0.29094 0,0.16276 -0.126118,0.29093 -0.288871,0.29093 -0.162753,0 -0.290938,-0.12817 -0.290938,-0.29093 0,-0.16275 0.128185,-0.29094 0.290938,-0.29094 z m -7.106543,1.98489 c -0.09803,0 -0.185372,0.0402 -0.246497,0.10542 -0.0049,0.0126 -0.01102,0.0256 -0.01809,0.0393 -0.01585,0.0307 -0.03357,0.0563 -0.05271,0.077 -0.01237,0.0352 -0.01912,0.0729 -0.01912,0.11266 0,0.1874 0.14901,0.33641 0.336414,0.33641 0.187403,0 0.335897,-0.14901 0.335897,-0.33641 0,-0.18741 -0.148494,-0.33435 -0.335897,-0.33435 z m -3.507797,10.05727 a 0.34103176,0.34103176 0 0 1 0.341065,0.34106 0.34103176,0.34103176 0 0 1 -0.341065,0.34106 0.34103176,0.34103176 0 0 1 -0.341064,-0.34106 0.34103176,0.34103176 0 0 1 0.341064,-0.34106 z" />
      <path
         style="baseline-shift:baseline;display:inline;overflow:visible;vector-effect:none;fill:#b58900;stroke-linecap:round;stroke-linejoin:round;paint-order:stroke fill markers;enable-background:accumulate;stop-color:#000000;stop-opacity:1;opacity:1"
         d="m -116.68945,387.88086 c -1.48136,0 -2.69922,1.21786 -2.69922,2.69922 0,1.48135 1.21786,2.69922 2.69922,2.69922 1.48135,0 2.69922,-1.21787 2.69922,-2.69922 0,-1.48136 -1.21787,-2.69922 -2.69922,-2.69922 z m 0,1.58789 c 0.6234,0 1.11328,0.48792 1.11328,1.11133 0,0.62341 -0.48988,1.11133 -1.11328,1.11133 -0.62341,0 -1.11133,-0.48792 -1.11133,-1.11133 0,-0.62341 0.48792,-1.11133 1.11133,-1.11133 z"
         id="path137" />
    </g>
  </g>
</svg>
