<?xml version="1.0" encoding="UTF-8" standalone="no"?>
<!-- Created with Inkscape (http://www.inkscape.org/) -->

<svg
   width="512mm"
   height="512mm"
   viewBox="0 0 512 512"
   version="1.1"
   id="svg1"
   inkscape:version="1.4.2 (ebf0e940d0, 2025-05-08)"
   sodipodi:docname="aptipiou.svg"
   inkscape:export-filename="aptipiou.png"
   inkscape:export-xdpi="96"
   inkscape:export-ydpi="96"
   xmlns:inkscape="http://www.inkscape.org/namespaces/inkscape"
   xmlns:sodipodi="http://sodipodi.sourceforge.net/DTD/sodipodi-0.dtd"
   xmlns="http://www.w3.org/2000/svg"
   xmlns:svg="http://www.w3.org/2000/svg">
  <sodipodi:namedview
     id="namedview1"
     pagecolor="#505050"
     bordercolor="#ffffff"
     borderopacity="1"
     inkscape:showpageshadow="0"
     inkscape:pageopacity="0"
     inkscape:pagecheckerboard="1"
     inkscape:deskcolor="#505050"
     inkscape:document-units="mm"
     inkscape:zoom="0.44029385"
     inkscape:cx="461.05572"
     inkscape:cy="692.71919"
     inkscape:window-width="3440"
     inkscape:window-height="1409"
     inkscape:window-x="4720"
     inkscape:window-y="1200"
     inkscape:window-maximized="1"
     inkscape:current-layer="layer1" />
  <defs
     id="defs1" />
  <g
     inkscape:label="Layer 1"
     inkscape:groupmode="layer"
     id="layer1">
    <g
       id="g89"
       transform="matrix(9.6127085,0,0,9.6127085,-935.8673,-2314.1055)">
      <path
         style="fill:#9ccaee;fill-opacity:1;stroke:none;stroke-width:2.95605;stroke-linecap:round;stroke-linejoin:round;stroke-dasharray:none;stroke-opacity:1;paint-order:stroke fill markers"
         d="m 440.07012,1016.6805 c -7.11871,-1.501 -12.89166,-6.5161 -15.33757,-13.3241 -0.86061,-2.3954 -1.04315,-3.51338 -1.15432,-7.06977 -0.0943,-3.01642 -0.0704,-3.53354 0.2315,-5.01509 1.7047,-8.36512 7.95143,-14.82712 16.01578,-16.56772 1.64667,-0.35542 4.79747,-0.47294 6.51868,-0.24315 4.4366,0.59232 8.39815,2.56842 11.60738,5.79 3.21919,3.23158 5.17797,6.96604 6.03007,11.49647 0.35077,1.86498 0.39555,5.5148 0.0909,7.40651 -1.44613,8.97895 -8.26758,16.09905 -16.85923,17.59725 -1.98595,0.3464 -5.32268,0.3135 -7.14317,-0.07 z m 10.11673,-8.0041 c 1.88541,-0.4249 4.00395,-2.0431 5.24277,-4.0047 0.35908,-0.5685 0.88407,-1.7111 1.16665,-2.539 0.44764,-1.3114 0.52297,-1.7818 0.5851,-3.65364 0.0807,-2.4328 -0.0924,-3.71551 -0.77658,-5.75427 -0.68869,-2.05206 -1.54762,-3.47987 -2.9369,-4.88205 -2.04158,-2.06052 -4.01625,-2.87477 -6.63905,-2.73758 -1.37849,0.0721 -1.6571,0.14487 -2.8857,0.75367 -2.52789,1.25262 -4.57711,4.02645 -5.49366,7.43626 -0.49789,1.85229 -0.49341,5.30658 0.009,7.16941 1.05515,3.91 3.32411,6.6484 6.49945,7.8442 1.75229,0.6599 3.41346,0.7767 5.22862,0.3677 z"
         id="path67"
         transform="scale(0.26458333)" />
      <path
         style="fill:#eee8d5;fill-opacity:1;stroke:none;stroke-width:2.95605;stroke-linecap:round;stroke-linejoin:round;stroke-dasharray:none;stroke-opacity:1;paint-order:stroke fill markers"
         d="m 448.91507,994.75082 c -1.10862,-1.00157 -1.27244,-2.3919 -0.43156,-3.66256 0.54957,-0.83045 1.25919,-1.19523 2.10457,-1.08184 1.32104,0.17718 2.22838,1.27773 2.22743,2.70173 -0.001,1.59753 -0.97105,2.62191 -2.48379,2.62311 -0.6583,5.1e-4 -0.86929,-0.0859 -1.41665,-0.58044 z"
         id="path68"
         transform="scale(0.26458333)" />
      <path
         style="fill:#9ccaee;fill-opacity:1;stroke:none;stroke-width:2.95605;stroke-linecap:round;stroke-linejoin:round;stroke-dasharray:none;stroke-opacity:1;paint-order:stroke fill markers"
         d="m 509.59688,1010.8045 c -2.97977,-0.3896 -6.31855,-1.751 -8.81656,-3.5948 -3.974,-2.9333 -6.90942,-7.74234 -7.79764,-12.77473 -0.33614,-1.90442 -0.33819,-5.42261 -0.004,-7.33168 1.22525,-7.00499 5.81153,-12.72471 12.26816,-15.30005 2.41006,-0.9613 4.40911,-1.28422 7.3693,-1.19042 3.14431,0.0996 4.99515,0.5406 7.48967,1.78445 l 1.71656,0.85594 0.62016,1.79236 c 1.36191,3.93611 2.35471,8.74923 2.87676,13.94646 0.17635,1.75575 0.39104,3.36888 0.47708,3.58473 0.086,0.21584 0.62024,0.94297 1.18711,1.61583 1.02554,1.21727 1.86162,2.40766 2.58509,3.68061 l 0.37937,0.66749 -0.60967,1.28379 c -3.58555,7.55012 -11.65368,12.03762 -19.74112,10.98002 z M 506.97736,1004 c 2.27334,-1.0645 4.1647,-3.6356 4.99787,-6.7943 0.44226,-1.67665 0.48565,-4.8095 0.0911,-6.57527 -0.58636,-2.62398 -1.82574,-5.01699 -3.4024,-6.56936 -3.42185,-3.36914 -8.20396,-2.90898 -11.16524,1.07437 -1.67244,2.24967 -2.51448,4.85664 -2.50865,7.76683 0.007,3.59579 1.21198,6.6967 3.62965,9.34203 1.54803,1.6938 3.30042,2.4005 5.76763,2.326 1.25779,-0.038 1.62638,-0.1191 2.59007,-0.5703 z"
         id="path69"
         transform="scale(0.26458333)" />
      <path
         style="fill:#eee8d5;fill-opacity:1;stroke:none;stroke-width:2.95605;stroke-linecap:round;stroke-linejoin:round;stroke-dasharray:none;stroke-opacity:1;paint-order:stroke fill markers"
         d="m 500.06941,992.21585 c -0.5257,-0.20962 -1.1111,-0.7597 -1.40057,-1.31607 -0.81163,-1.55992 0.74936,-4.25678 2.294,-3.96326 1.34509,0.25559 2.49001,1.75686 2.31798,3.03943 -0.11194,0.83458 -0.68316,1.66386 -1.43851,2.08839 -0.64566,0.36288 -1.13743,0.4049 -1.7729,0.15151 z"
         id="path70"
         transform="scale(0.26458333)" />
      <path
         style="fill:#b58900;fill-opacity:1;stroke:none;stroke-width:2.95605;stroke-linecap:round;stroke-linejoin:round;stroke-dasharray:none;stroke-opacity:1;paint-order:stroke fill markers"
         d="m 478.14241,1004.7845 c -4.11766,-0.4343 -7.23972,-1.9105 -7.23972,-3.4231 0,-0.843 1.97876,-3.0506 3.81739,-4.25895 3.11843,-2.04946 6.34677,-1.63177 10.15879,1.31435 1.73905,1.34403 2.69452,2.3945 3.06835,3.3733 0.26863,0.7034 0.26703,0.7434 -0.0468,1.1679 -0.17874,0.2417 -0.63078,0.6103 -1.00453,0.8191 -1.46005,0.8157 -5.81688,1.3171 -8.75344,1.0074 z"
         id="path71"
         transform="scale(0.26458333)" />
      <path
         style="fill:#dc322f;fill-opacity:1;stroke:none;stroke-width:2.95605;stroke-linecap:round;stroke-linejoin:round;stroke-dasharray:none;stroke-opacity:1;paint-order:stroke fill markers"
         d="m 476.12936,1013.9838 c -1.0253,-0.2869 -2.61478,-1.0616 -3.43431,-1.6739 -1.70841,-1.2765 -3.25838,-3.4811 -3.25871,-4.6352 -1.7e-4,-0.5894 0.19311,-0.5809 2.47528,0.1088 3.71855,1.1239 5.5265,1.398 9.2208,1.3983 2.22515,2e-4 2.29309,0.07 1.51813,1.5649 -1.34023,2.585 -4.04806,3.9291 -6.52119,3.2371 z"
         id="path72"
         transform="scale(0.26458333)" />
      <path
         style="fill:#ea98c0;fill-opacity:1;stroke:none;stroke-width:2.95605;stroke-linecap:round;stroke-linejoin:round;stroke-dasharray:none;stroke-opacity:1;paint-order:stroke fill markers"
         d="m 487.26289,994.9874 c -0.99879,-1.10839 -4.60921,-3.00762 -6.33926,-3.33471 -0.59994,-0.11343 -0.6188,-0.13217 -0.23716,-0.23575 0.62842,-0.17057 6.33602,-0.55029 6.45674,-0.42957 0.058,0.058 0.16287,0.84631 0.23301,1.75175 0.0701,0.90545 0.17429,1.85923 0.23146,2.11951 0.12387,0.56397 0.0666,0.58534 -0.34479,0.12877 z"
         id="path73"
         transform="scale(0.26458333)" />
      <path
         style="fill:#ea98c0;fill-opacity:1;stroke:none;stroke-width:2.95605;stroke-linecap:round;stroke-linejoin:round;stroke-dasharray:none;stroke-opacity:1;paint-order:stroke fill markers"
         d="m 469.92281,994.10103 c -0.001,-0.6225 -0.0436,-1.28603 -0.0942,-1.47451 -0.083,-0.3091 -0.007,-0.35235 0.7762,-0.44126 0.4775,-0.0542 1.63809,-0.14272 2.57908,-0.19668 l 1.71089,-0.0981 -1.33127,0.71379 c -1.42073,0.76176 -2.2574,1.33575 -3.1089,2.13286 l -0.52956,0.49573 z"
         id="path74"
         transform="scale(0.26458333)" />
      <path
         style="fill:#ea98c0;fill-opacity:1;stroke:none;stroke-width:2.95605;stroke-linecap:round;stroke-linejoin:round;stroke-dasharray:none;stroke-opacity:1;paint-order:stroke fill markers"
         d="m 468.1484,985.67755 c -1.62243,-4.23691 -4.73781,-8.50593 -8.29927,-11.37252 -8.77727,-7.06476 -20.89659,-7.57062 -30.293,-1.26442 -0.64973,0.43606 -1.18133,0.73194 -1.18133,0.65752 0,-0.2341 1.46298,-2.17436 2.87813,-3.8171 0.74852,-0.8689 2.29524,-2.41819 3.43717,-3.44288 1.14192,-1.02469 2.45306,-2.29674 2.91365,-2.82678 5.29323,-6.09142 5.3209,-11.98424 0.0787,-16.76175 -0.38914,-0.35464 -1.45104,-1.15943 -2.35978,-1.78842 -1.85186,-1.28178 -2.05091,-1.62276 -1.27134,-2.17786 0.57902,-0.4123 2.98713,-1.22785 6.29972,-2.13352 2.85348,-0.78014 3.63371,-1.12297 4.3108,-1.89413 0.54959,-0.62595 0.64006,-1.33141 0.25906,-2.02004 -0.12395,-0.22405 -1.01327,-1.10393 -1.97625,-1.95531 -2.70476,-2.39126 -3.32794,-3.53919 -2.41628,-4.45086 1.54975,-1.54975 7.95479,0.34032 12.17108,3.59158 2.82654,2.17961 3.06168,2.32576 3.74175,2.32576 0.85382,0 1.58905,-0.7012 1.58905,-1.51551 0,-0.73784 -0.28231,-1.38579 -1.40816,-3.23189 -1.82215,-2.98784 -2.99127,-5.98464 -2.99127,-7.6675 0,-0.83347 0.34493,-1.62422 0.89841,-2.05959 1.53909,-1.21065 6.3225,0.77231 9.75524,4.04403 2.28352,2.17641 3.88029,4.45944 6.21251,8.88251 1.50899,2.86181 1.53976,2.88845 3.74601,3.24278 6.70969,1.07759 11.66722,2.39641 17.01813,4.52725 9.63399,3.83643 17.79801,10.05737 23.73431,18.08539 1.78232,2.41035 3.59147,5.40332 3.18888,5.27555 -2.23296,-0.70872 -7.01566,-0.95135 -9.89023,-0.50174 -6.64963,1.04007 -12.79963,5.02108 -16.61939,10.75807 -1.60681,2.4133 -3.20414,6.08717 -3.73703,8.59519 -0.0524,0.24645 -0.2023,0.44809 -0.33319,0.44809 -0.13088,0 -4.30641,0.32996 -9.27895,0.73324 -4.97253,0.40329 -9.20886,0.73324 -9.41406,0.73324 -0.30744,0 -0.44172,-0.17921 -0.76307,-1.01838 z"
         id="path75"
         transform="scale(0.26458333)" />
      <path
         style="fill:#859900;fill-opacity:1;stroke:none;stroke-width:2.95605;stroke-linecap:round;stroke-linejoin:round;stroke-dasharray:none;stroke-opacity:1;paint-order:stroke fill markers"
         d="m 419.45171,980.40903 c -0.35847,-0.41936 -0.73732,-1.04806 -0.84189,-1.39709 -0.4038,-1.34776 -3.14808,-3.48107 -6.55051,-5.09213 -2.57023,-1.21701 -4.26522,-1.71874 -6.39436,-1.89279 -0.97449,-0.0797 -1.80952,-0.18256 -1.85563,-0.22867 -0.28509,-0.28509 3.19784,-6.53132 5.54204,-9.93901 2.36887,-3.44357 3.30744,-4.58669 6.14393,-7.48299 4.46624,-4.56039 8.73471,-7.70523 11.05723,-8.14651 0.64467,-0.12249 2.25397,0.37054 3.17819,0.97367 0.76074,0.49644 0.77575,0.47341 -1.33916,2.055 -1.87964,1.40565 -3.71712,3.00645 -6.12708,5.33786 -2.07931,2.01154 -2.98809,2.70645 -3.83906,2.9356 -2.04008,0.54933 -4.00969,4.18241 -3.56317,6.57249 0.23046,1.23358 1.18156,2.32658 2.36415,2.71687 2.64354,0.87244 6.00066,-1.59377 6.36565,-4.67634 0.0588,-0.49649 -0.009,-1.19491 -0.1846,-1.89387 l -0.27773,-1.10733 0.42807,-0.87494 c 0.4686,-0.95778 1.62196,-2.11466 4.04602,-4.05837 3.43205,-2.75196 5.2253,-3.85312 6.26488,-3.84701 0.76283,0.004 1.15635,0.31172 1.89176,1.47698 2.13138,3.37721 1.18913,6.2028 -3.53157,10.59044 -1.57774,1.46642 -4.70814,4.95796 -6.05379,6.75218 -2.18569,2.9143 -3.91957,6.22413 -5.39331,10.29541 -0.31664,0.87474 -0.5988,1.61352 -0.62702,1.64174 -0.0282,0.0282 -0.34458,-0.29182 -0.70304,-0.71119 z"
         id="path76"
         transform="scale(0.26458333)" />
      <path
         style="fill:#b58900;fill-opacity:1;stroke:none;stroke-width:2.95605;stroke-linecap:round;stroke-linejoin:round;stroke-dasharray:none;stroke-opacity:1;paint-order:stroke fill markers"
         d="m 418.14204,963.68851 c -0.28893,-0.28893 -0.23733,-1.46421 0.0846,-1.9272 0.69283,-0.99638 1.467,-1.244 1.91035,-0.61103 0.52178,0.74495 0.0857,1.98636 -0.87165,2.48143 -0.58644,0.30326 -0.86286,0.31724 -1.1233,0.0568 z"
         id="path77"
         transform="scale(0.26458333)" />
      <path
         style="fill:#dc322f;fill-opacity:1;stroke:none;stroke-width:2.95605;stroke-linecap:round;stroke-linejoin:round;stroke-dasharray:none;stroke-opacity:1;paint-order:stroke fill markers"
         d="m 397.11955,943.09317 c -1.35981,-0.67762 -2.09339,-2.25293 -1.66026,-3.56531 0.23155,-0.70162 1.00748,-1.63791 1.61408,-1.94767 1.84765,-0.9435 4.03081,0.17391 4.48778,2.29699 0.25602,1.18947 -0.65282,2.74853 -1.94423,3.33521 -0.89498,0.40658 -1.5002,0.37769 -2.49737,-0.11922 z"
         id="path78"
         transform="scale(0.26458333)" />
      <path
         style="fill:#859900;fill-opacity:1;stroke:none;stroke-width:2.95605;stroke-linecap:round;stroke-linejoin:round;stroke-dasharray:none;stroke-opacity:1;paint-order:stroke fill markers"
         d="m 403.85201,1015.2241 c -1.64286,-0.3127 -4.66993,-1.508 -4.42904,-1.7489 0.0467,-0.047 0.65136,0.041 1.34378,0.1953 5.15893,1.1477 9.38678,-2.627 11.11957,-9.9278 0.39636,-1.67 0.4296,-2.0856 0.42509,-5.31493 -0.004,-2.988 -0.057,-3.73731 -0.35912,-5.09456 -0.87914,-3.94943 -2.62562,-7.65706 -4.63236,-9.83411 -1.41574,-1.53591 -3.88541,-2.98524 -5.83835,-3.42627 l -1.13282,-0.25582 v -0.8809 c 0,-0.81859 0.0375,-0.90387 0.52956,-1.20566 1.18887,-0.7291 2.27057,-1.02369 3.7884,-1.03175 1.28128,-0.007 1.63408,0.0587 2.79356,0.51902 1.85158,0.73504 3.16957,1.63253 4.79732,3.26677 2.31648,2.32571 3.89084,4.98637 5.07077,8.56956 l 0.64537,1.95985 -0.18239,2.36266 c -0.18247,2.36358 -0.0622,5.1761 0.3032,7.08794 0.3633,1.9011 -1.24484,6.5841 -3.2174,9.3692 -1.46379,2.0668 -2.92648,3.3449 -5.01217,4.3797 -1.70504,0.846 -4.45233,1.3078 -6.01297,1.0107 z"
         id="path79"
         transform="scale(0.26458333)" />
      <path
         style="fill:#268bd2;fill-opacity:1;stroke:none;stroke-width:2.95605;stroke-linecap:round;stroke-linejoin:round;stroke-dasharray:none;stroke-opacity:1;paint-order:stroke fill markers"
         d="m 400.03761,1009.4172 c -2.57631,-0.7069 -4.94242,-3.6751 -5.87576,-7.3708 -0.60403,-2.39183 -0.50803,-2.7664 0.80229,-3.13041 0.78842,-0.21903 1.3755,-0.19996 2.579,0.0838 1.36045,0.32074 2.14046,0.7379 3.23765,1.73151 0.9717,0.88 1.73354,1.2812 2.43277,1.2812 1.00516,0 2.35413,-1.2425 2.81271,-2.59065 0.76746,-2.25625 -0.82505,-4.9094 -2.943,-4.90309 -0.29413,8.7e-4 -0.93807,0.20187 -1.43097,0.44666 -0.85562,0.42493 -1.00681,0.44513 -3.34032,0.4465 -2.90844,0.002 -4.3766,-0.25821 -4.75948,-0.84256 -0.65449,-0.99886 0.1364,-3.82764 1.7628,-6.30505 1.65043,-2.51403 3.21378,-3.72843 4.77574,-3.70977 3.40557,0.0407 6.24312,3.66358 7.42964,9.48594 0.87502,4.29375 0.51431,8.53562 -0.99259,11.67292 -1.40332,2.9216 -3.98069,4.3924 -6.49048,3.7038 z"
         id="path80"
         transform="scale(0.26458333)" />
      <path
         style="fill:#ea98c0;fill-opacity:1;stroke:none;stroke-width:2.95605;stroke-linecap:round;stroke-linejoin:round;stroke-dasharray:none;stroke-opacity:1;paint-order:stroke fill markers"
         d="m 444.32222,1096.6807 c -9.26596,-0.58 -17.33792,-2.285 -23.97098,-5.0634 -1.05228,-0.4407 -2.05385,-0.8014 -2.22571,-0.8014 -0.55204,0 -3.50226,-1.586 -5.74252,-3.0871 -4.53685,-3.04 -7.93386,-5.922 -10.50568,-8.9131 -2.33591,-2.7167 -2.47672,-2.8275 -3.59381,-2.8275 -1.09026,0 -1.82019,-0.3549 -3.05962,-1.4877 -3.78538,-3.4596 -7.59773,-11.1837 -7.02546,-14.2342 0.12648,-0.6742 0.43634,-0.7348 1.3619,-0.2663 1.32838,0.6724 2.46307,0.5291 3.06315,-0.3867 0.35282,-0.5385 0.36778,-1.6559 0.0307,-2.2922 -0.13945,-0.2632 -0.51338,-0.9552 -0.83094,-1.5377 -2.18069,-4.0001 -2.23361,-10.6791 -0.10088,-12.7307 1.87683,-1.8054 5.9691,-0.7816 7.49254,1.8745 0.65556,1.143 0.65188,2.0517 -0.0125,3.0993 -1.36063,2.1455 -2.55549,5.1015 -2.93099,7.251 -0.26648,1.5255 -0.22215,4.2193 0.0907,5.5114 0.63808,2.6353 2.29205,5.0303 4.47717,6.483 1.52117,1.0113 2.81836,1.5174 5.01882,1.9581 1.0137,0.203 1.88282,0.4089 1.93139,0.4574 0.0486,0.049 0.18388,0.6388 0.30071,1.3115 0.67717,3.8996 4.12967,6.0484 10.04724,6.2535 5.98021,0.2072 11.7866,-1.523 17.23355,-5.1354 3.35189,-2.2229 7.84687,-7.1436 9.46777,-10.3644 0.35476,-0.7049 0.64501,-1.4473 0.64501,-1.6498 0,-0.2026 0.18541,-0.7875 0.41203,-1.2999 0.96425,-2.1804 1.57934,-5.7372 1.607,-9.2928 0.0241,-3.1018 -0.0933,-3.6917 -0.91176,-4.5796 -0.51703,-0.561 -0.77349,-0.716 -1.18424,-0.716 -1.00275,0 -1.43084,0.9647 -1.80012,4.0567 -0.5571,4.6645 -1.48133,7.926 -3.26116,11.5079 -3.40817,6.8591 -9.30332,11.3909 -16.85893,12.9602 -2.06946,0.4298 -5.31363,0.5117 -6.68063,0.1685 -2.06074,-0.5172 -3.58472,-1.6009 -3.58472,-2.5492 0,-0.6723 0.94416,-1.4589 3.01442,-2.5112 1.07542,-0.5466 3.76289,-2.2063 5.97216,-3.6882 l 4.01686,-2.6944 1.52522,-0.1443 c 1.7866,-0.169 2.50343,-0.4336 3.42417,-1.2636 1.73011,-1.5596 1.93627,-4.2888 0.43011,-5.6937 -0.50447,-0.4706 -1.63033,-0.8614 -2.47584,-0.8594 -1.39528,0 -3.84939,1.6924 -3.84939,2.6494 0,0.2341 -0.0643,0.4654 -0.1429,0.514 -0.0786,0.049 -0.22901,0.4303 -0.33425,0.8482 -0.22606,0.8978 -0.52322,1.1975 -3.14028,3.1676 -2.32159,1.7476 -4.82589,3.2499 -6.4787,3.8863 -3.39731,1.3082 -6.71859,1.3039 -9.82049,-0.013 -1.15597,-0.4907 -3.2477,-1.7399 -3.44322,-2.0562 -0.0539,-0.087 0.46901,-0.5892 1.16193,-1.1157 0.69292,-0.5265 2.30091,-1.9655 3.57332,-3.1977 1.2724,-1.2323 2.40892,-2.2397 2.5256,-2.2387 0.11667,10e-4 0.68222,0.3301 1.25677,0.7313 2.04253,1.4266 3.86491,1.7514 5.51526,0.983 1.47157,-0.6851 2.30933,-1.3681 5.44484,-4.4389 2.65459,-2.5998 3.10893,-2.9801 3.56011,-2.9801 1.20242,0 2.55196,-1.1787 2.94115,-2.5688 0.49883,-1.7816 0.10592,-3.3676 -1.09648,-4.426 -1.57677,-1.3879 -3.63465,-1.2321 -5.21901,0.3952 -1.28072,1.3155 -1.63212,2.7707 -1.08108,4.4769 0.26233,0.8122 0.26062,0.8725 -0.0407,1.4415 -0.72049,1.3602 -3.58626,3.9757 -5.31717,4.8529 -0.92786,0.4701 -1.34666,0.4861 -2.2778,0.087 -1.36346,-0.5844 -1.415,-1.0611 -0.19194,-1.7751 1.517,-0.8856 2.11577,-1.7067 1.61201,-2.2104 -0.13747,-0.1375 -0.24994,-0.3296 -0.24994,-0.4269 0,-0.3042 -1.03236,-0.823 -1.62943,-0.8189 -0.75222,0.01 -1.21006,0.3661 -4.69883,3.7041 -4.65434,4.4531 -6.23263,5.7414 -7.03349,5.7414 -0.54677,0 -0.65128,-0.2263 -0.65128,-1.4103 0,-2.4026 2.13991,-6.3949 5.57607,-10.403 2.98468,-3.4814 7.70582,-7.5544 10.33892,-8.9196 l 1.00996,-0.5237 1.62371,0.5459 c 2.78995,0.9381 4.58912,0.5525 4.58912,-0.9833 0,-0.9212 -0.66679,-1.5561 -2.88545,-2.7476 -6.85985,-3.6839 -9.54539,-5.5475 -13.00807,-9.0268 -2.22853,-2.2393 -4.80234,-5.8527 -4.43236,-6.2227 0.0521,-0.052 0.63232,0.018 1.28927,0.1553 2.9666,0.6213 4.90965,0.4765 7.57099,-0.564 2.10108,-0.8215 4.24134,-2.2178 5.52691,-3.6059 1.0423,-1.1253 2.45949,-3.2016 3.3243,-4.8702 l 0.55888,-1.0783 0.64644,1.0783 c 3.66446,6.1127 9.94165,10.5678 17.05154,12.102 1.46431,0.316 2.1923,0.3692 5.0512,0.3692 2.83737,0 3.58928,-0.054 4.99381,-0.3598 6.75127,-1.469 12.55296,-5.3579 16.36263,-10.9678 l 0.66634,-0.9813 0.56946,0.9469 c 2.36132,3.926 6.05588,6.7305 9.51229,7.2207 5.10455,0.724 10.78757,-3.4988 11.79018,-8.7606 0.11904,-0.6248 0.26374,-1.2125 0.32156,-1.306 0.0578,-0.094 0.5998,-0.4404 1.20441,-0.7707 0.60461,-0.3303 1.4767,-0.8835 1.93797,-1.2293 l 0.83868,-0.6288 0.4495,0.6851 c 0.81694,1.2452 4.2979,4.5551 5.93109,5.6396 7.51882,4.9931 16.55933,5.6116 24.39995,1.6694 3.07325,-1.5452 6.41488,-4.298 8.46252,-6.9714 0.74178,-0.9685 0.96212,-1.1658 1.07552,-0.9631 0.0784,0.1401 0.18471,1.2623 0.23615,2.4936 0.25008,5.9871 -1.80344,11.5145 -5.87022,15.8008 -1.38383,1.4586 -4.26381,3.7429 -5.97316,4.7378 -1.73717,1.0111 -7.90305,4.0125 -8.921,4.3425 -1.82981,0.5932 -1.80108,1.4343 0.19784,5.7912 3.63267,7.9178 4.97342,13.7813 4.97493,21.757 6.3e-4,3.3024 -0.20884,5.4245 -0.61879,6.269 -0.25427,0.5238 -0.32996,0.5671 -0.9286,0.5317 -3.0658,-0.1815 -3.94374,0.032 -5.81435,1.4154 -1.99389,1.4744 -3.55084,3.7483 -4.70058,6.8651 -1.25049,3.3899 -2.76485,9.4784 -2.76485,11.1161 0,0.6539 -0.0697,0.799 -0.58927,1.2273 -1.20446,0.9929 -5.212,2.8725 -9.20501,4.3175 -4.19447,1.5179 -11.95287,3.0064 -17.22119,3.3042 -2.70599,0.1529 -2.65689,0.4365 -0.72254,-4.173 4.78039,-11.3917 5.02745,-18.6764 0.6979,-20.5775 -0.40784,-0.1791 -0.95904,-0.5071 -1.22489,-0.7289 -0.44141,-0.3683 -0.58683,-0.3966 -1.67518,-0.3268 -1.80004,0.1155 -3.62578,1.0646 -5.3012,2.7556 -0.69737,0.7039 -1.32905,1.2798 -1.40375,1.2798 -0.0747,0 -0.46658,-0.5683 -0.87087,-1.2628 -1.76847,-3.0382 -4.73165,-4.5806 -7.45798,-3.8822 -3.06,0.784 -4.8481,3.1472 -5.64032,7.4547 -0.34235,1.8614 -0.39176,7.2603 -0.0877,9.5851 0.34771,2.6587 0.97933,5.462 1.80998,8.0333 l 0.80001,2.4764 -0.59898,0.1092 c -1.05599,0.1926 -6.88035,0.2777 -9.17435,0.1341 z"
         id="path81"
         transform="scale(0.26458333)" />
      <ellipse
         style="fill:#d33682;fill-opacity:1;stroke:none;stroke-width:5.8673;stroke-linecap:round;stroke-linejoin:round;stroke-dasharray:none;stroke-opacity:1;paint-order:stroke fill markers"
         id="path88"
         cx="115.85113"
         cy="270.86658"
         rx="3.4312596"
         ry="1.8263155" />
      <path
         style="fill:#859900;fill-opacity:1;stroke:none;stroke-width:2.95605;stroke-linecap:round;stroke-linejoin:round;stroke-dasharray:none;stroke-opacity:1;paint-order:stroke fill markers"
         d="m 423.66131,1046.8811 c -0.40559,-0.5156 -0.40741,-0.5393 -0.0778,-1.0098 0.20447,-0.292 0.3869,-0.3605 0.85545,-0.3214 0.50157,0.042 0.6032,0.1153 0.64404,0.4659 0.0532,0.4567 -0.50551,1.2946 -0.8632,1.2946 -0.12142,0 -0.37273,-0.1932 -0.55847,-0.4293 z"
         id="path82"
         transform="scale(0.26458333)" />
      <path
         style="fill:#859900;fill-opacity:1;stroke:none;stroke-width:2.95605;stroke-linecap:round;stroke-linejoin:round;stroke-dasharray:none;stroke-opacity:1;paint-order:stroke fill markers"
         d="m 428.24445,1058.1949 c -0.45924,-0.4592 -0.0135,-1.7597 0.60316,-1.7597 0.34643,0 0.83073,0.4933 0.83073,0.8463 0,0.3735 -0.63462,1.109 -0.95689,1.109 -0.15481,0 -0.36946,-0.088 -0.477,-0.1956 z"
         id="path83"
         transform="scale(0.26458333)" />
      <path
         style="fill:#b58900;fill-opacity:1;stroke:none;stroke-width:2.95605;stroke-linecap:round;stroke-linejoin:round;stroke-dasharray:none;stroke-opacity:1;paint-order:stroke fill markers"
         d="m 461.68733,1099.3999 c -1.94482,-0.9268 -3.70103,-4.1684 -5.02921,-9.2827 -1.3698,-5.2747 -1.4428,-12.1345 -0.15902,-14.9432 0.71906,-1.5732 1.53513,-2.1411 2.58086,-1.796 1.75938,0.5807 2.79225,3.065 3.49305,8.4018 0.35981,2.7401 0.54278,3.2947 1.13614,3.4436 0.99501,0.2497 1.99526,-1.0467 3.37381,-4.3727 1.13401,-2.7361 1.99975,-4.2041 3.17278,-5.38 1.49497,-1.4986 2.49832,-1.4612 3.242,0.121 1.07559,2.2882 0.32742,6.3074 -2.47,13.2689 -3.49517,8.698 -6.37819,11.951 -9.34041,10.5393 z"
         id="path84"
         transform="scale(0.26458333)" />
      <path
         style="fill:#b58900;fill-opacity:1;stroke:none;stroke-width:2.95605;stroke-linecap:round;stroke-linejoin:round;stroke-dasharray:none;stroke-opacity:1;paint-order:stroke fill markers"
         d="m 507.42985,1094.1549 c -0.98982,-0.8329 -1.23215,-1.5464 -1.30099,-3.8309 -0.12401,-4.1156 1.23588,-9.8288 3.40158,-14.2907 1.91689,-3.9492 4.30334,-5.3808 5.40101,-3.2399 0.49354,0.9626 0.45816,2.8976 -0.0962,5.2613 -0.31705,1.3518 -0.38705,1.928 -0.27123,2.2326 0.16754,0.4407 0.92437,0.9151 1.45988,0.9151 0.51134,0 1.40048,-0.8874 2.50485,-2.4998 2.40801,-3.5158 5.1997,-5.414 6.7689,-4.6026 1.86859,0.9663 0.39229,5.0759 -3.66351,10.1983 -1.65049,2.0845 -5.94325,6.3051 -7.84654,7.7147 -2.00468,1.4847 -3.77831,2.3775 -4.96666,2.5002 -0.76779,0.079 -0.91672,0.041 -1.39108,-0.3583 z"
         id="path85"
         transform="scale(0.26458333)" />
      <path
         style="fill:#ea98c0;fill-opacity:1;stroke:none;stroke-width:2.95605;stroke-linecap:round;stroke-linejoin:round;stroke-dasharray:none;stroke-opacity:1;paint-order:stroke fill markers"
         d="m 521.5617,1062.5862 c -0.009,-0.022 -0.0736,-1.9471 -0.14408,-4.2772 -0.22747,-7.5234 -1.31181,-12.5632 -4.13678,-19.2272 l -1.03612,-2.4441 0.34456,-0.2826 c 1.25815,-1.0317 13.64406,-6.6345 18.83849,-8.5215 1.29946,-0.4721 2.8026,-1.0539 3.34031,-1.2929 1.44461,-0.6421 3.5808,-1.2244 4.90052,-1.336 2.13985,-0.1809 3.88561,0.5557 4.72934,1.9954 0.36891,0.6295 0.46522,1.0196 0.52287,2.1181 0.23528,4.4827 -3.71874,9.5945 -10.13335,13.1003 -2.08651,1.1403 -3.22953,2.4862 -2.75762,3.247 0.3471,0.5595 1.06157,0.7359 3.06412,0.7563 2.82224,0.029 3.17737,0.2831 3.17737,2.2752 0,4.5092 -6.49586,10.0339 -15.00119,12.7584 -2.10405,0.6739 -5.61479,1.3694 -5.70844,1.1308 z"
         id="path86"
         transform="scale(0.26458333)" />
      <path
         style="fill:#9ccaee;fill-opacity:1;stroke:none;stroke-width:2.95605;stroke-linecap:round;stroke-linejoin:round;stroke-dasharray:none;stroke-opacity:1;paint-order:stroke fill markers"
         d="m 530.55677,991.42367 c -0.74003,-0.93621 -0.76447,-1.02798 -0.99871,-3.75008 -0.15027,-1.7464 -0.33345,-3.11199 -0.90708,-6.7621 -0.10092,-0.64219 -0.0984,-0.6463 0.17277,-0.27984 0.46467,0.62802 1.56057,3.41629 1.9919,5.06797 0.31611,1.2105 0.42878,2.13146 0.49565,4.05148 0.0476,1.36668 0.0418,2.48487 -0.013,2.48487 -0.0547,0 -0.38843,-0.36554 -0.74157,-0.8123 z"
         id="path87"
         transform="scale(0.26458333)" />
      <ellipse
         style="fill:#d33682;fill-opacity:1;stroke:none;stroke-width:5.12015;stroke-linecap:round;stroke-linejoin:round;stroke-dasharray:none;stroke-opacity:1;paint-order:stroke fill markers"
         id="ellipse89"
         cx="96.351669"
         cy="287.86795"
         rx="2.9320891"
         ry="1.6275749"
         transform="matrix(0.98703172,-0.16052533,0.14728341,0.98909433,0,0)" />
      <path
         id="path64-5"
         style="fill:#002b36;stroke-width:0.177561"
         d="m 120.39784,242.65697 c -0.94308,0.0465 -1.6168,0.65108 -1.6168,1.93062 0,0.60095 0.0356,0.57643 -0.62648,0.43081 -2.24212,-0.49317 -3.62139,0.8241 -2.54306,2.429 0.14926,0.22214 0.17806,0.20148 -0.76102,0.55102 -4.21116,1.56745 -6.86192,3.95888 -8.77743,7.91903 -0.0356,0.0736 -0.0944,0.19508 -0.16613,0.34366 v -5.48769 c 0.88067,-0.22085 1.55187,-1.03144 1.55187,-1.97128 0,-1.10453 -0.92699,-2.03065 -2.03153,-2.03065 -1.10453,0 -2.03064,0.92612 -2.03064,2.03065 0,0.93115 0.65802,1.73526 1.52642,1.96484 v 7.39491 c -0.0256,0.035 -0.0463,0.0588 -0.0608,0.069 -3.23609,2.26665 -3.3137,8.15492 -0.13834,10.5007 0.2169,0.16023 0.35101,0.31004 0.37554,0.42 0.34152,1.53121 1.87675,3.43994 3.64364,4.53013 0.21116,0.13028 0.18127,0.18668 -0.31324,0.59167 -0.24978,0.20456 -0.69659,0.60478 -0.99295,0.88941 -0.6366,0.61142 -0.5251,0.59047 -1.11959,0.20912 -2.92277,-1.87488 -5.30536,0.18791 -4.10838,3.55678 0.10653,0.29983 0.087,0.38489 -0.0883,0.38489 -0.29159,0 -0.56495,0.57612 -0.56477,1.19008 7.4e-4,2.00678 1.34882,4.07422 3.73723,5.73162 0.24824,0.17226 0.78328,0.6158 1.18891,0.98593 0.88691,0.80927 1.75732,1.41879 2.73873,1.91746 0.40086,0.20368 0.76411,0.39759 0.80694,0.43081 0.24373,0.18892 1.84803,0.74691 3.39767,1.18189 1.28858,0.3617 3.47899,0.57881 5.73892,0.56857 1.79269,-0.008 1.79278,-0.008 2.06721,0.21555 0.35266,0.28756 0.51641,0.3736 0.90082,0.47264 0.69712,0.17959 1.29161,0.008 1.84288,-0.53201 0.30419,-0.29785 0.3043,-0.29764 1.51706,-0.37291 0.67495,-0.0419 1.61553,-0.14679 2.12102,-0.23631 0.49955,-0.0885 0.99275,-0.17326 1.0959,-0.18865 0.86467,-0.12918 2.69472,-0.70605 3.55005,-1.11901 0.58152,-0.28076 0.5847,-0.28164 0.63847,-0.14331 0.0297,0.0765 0.0983,0.25177 0.15238,0.38958 0.84562,2.15456 5.04631,-0.21631 6.88806,-3.88757 0.93127,-1.85636 -0.37539,-3.66274 -1.96924,-2.72234 -0.28854,0.17024 -0.30462,0.14521 -0.20766,-0.32582 0.10636,-0.51675 0.1156,-0.52478 0.63058,-0.57266 3.76061,-0.34951 7.47721,-3.97721 6.06796,-5.92261 -0.23576,-0.32546 -0.23471,-0.33163 0.0819,-0.53786 2.69821,-1.75763 2.42575,-5.69625 -0.3925,-5.67429 -0.76646,0.006 -1.59509,0.19698 -2.6036,0.60045 -0.62046,0.24822 -0.62584,0.23811 -0.25855,-0.48521 1.08635,-2.13942 1.2099,-4.22931 0.39571,-6.03257 0.21295,-0.66607 0.32816,-1.37696 0.32816,-2.114 0,-2.38667 -1.20791,-4.49931 -3.03178,-5.70295 -0.28553,-0.73981 -0.61333,-1.41683 -0.97306,-1.99497 -0.72885,-1.17136 -2.51941,-3.1185 -3.62785,-3.94518 -0.5613,-0.41862 -1.1626,-0.83591 -1.34655,-0.93446 -0.10336,-0.0554 -0.37125,-0.19938 -0.59519,-0.31996 -0.81175,-0.43711 -1.04183,-0.55387 -1.51881,-0.77097 -0.26695,-0.1215 -0.6899,-0.29257 -0.93972,-0.37992 -0.24983,-0.0873 -0.51049,-0.18389 -0.57939,-0.21467 -0.4911,-0.21949 -2.35338,-0.6568 -3.33684,-0.78354 -0.32995,-0.0425 -0.32981,-0.0423 -0.57617,-0.55307 -1.19587,-2.47928 -3.51579,-3.95183 -5.08759,-3.8744 z m 0.17987,1.13304 c 0.23832,-0.008 0.54955,0.0711 0.93066,0.24948 1.23308,0.57703 2.10331,1.51894 2.94257,3.18446 0.23185,0.46009 0.46334,0.84023 0.52119,0.85636 0.0572,0.016 0.31544,0.0623 0.57383,0.10266 1.09039,0.17028 2.15398,0.40016 2.72499,0.58904 0.1378,0.0456 0.3632,0.11785 0.501,0.16086 3.7776,1.17954 6.69139,3.53289 8.4408,6.68187 -0.55266,-0.15775 -1.13471,-0.24217 -1.73612,-0.24217 -3.13175,0 -5.74132,2.28773 -6.38296,5.31191 l -5.13847,0.41415 c -0.93816,-2.78317 -3.49929,-4.79862 -6.521,-4.79862 -1.61147,0 -3.09202,0.57332 -4.26544,1.53051 0.49094,-0.80463 1.11452,-1.53044 1.87446,-2.18303 2.39253,-2.05453 2.37677,-4.22284 -0.0413,-5.69535 -0.66107,-0.40257 -0.39166,-0.57266 1.8148,-1.14678 0.98902,-0.25735 1.22853,-0.71087 0.6338,-1.19973 -0.98153,-0.80682 -1.21633,-1.19801 -0.88825,-1.48021 0.46751,-0.40213 2.35473,0.21431 3.40879,1.11344 0.64916,0.55376 0.79443,0.60506 1.07952,0.38081 0.20178,-0.15872 0.15738,-0.47423 -0.12927,-0.91867 -1.11902,-1.73497 -1.19479,-2.88126 -0.34366,-2.91099 z m -15.15045,4.16073 c 0.45298,0 0.8511,0.39842 0.8511,0.8514 0,0.45299 -0.39812,0.8511 -0.8511,0.8511 -0.45298,0 -0.85022,-0.39811 -0.85022,-0.8511 0,-0.45298 0.39724,-0.8514 0.85022,-0.8514 z m 7.51512,2.37519 c 0.0293,-0.001 0.057,4e-5 0.0828,0.003 0.27848,0.0373 0.8218,0.2895 0.85372,0.39629 0.0115,0.0385 -0.25407,0.26421 -0.59021,0.50131 -0.33613,0.2371 -0.98614,0.80162 -1.44453,1.25442 -0.65905,0.65102 -0.87974,0.83196 -1.05495,0.86484 -0.7193,0.13494 -1.29246,1.41298 -0.90755,2.02363 0.73172,1.16087 2.5829,-0.045 2.10582,-1.3717 -0.14557,-0.4048 0.17149,-0.80931 1.34304,-1.7139 1.39058,-1.07371 1.608,-1.11261 2.04527,-0.36647 0.481,0.82076 0.25663,1.54499 -0.78764,2.54189 -0.98543,0.94074 -1.75923,1.82752 -2.16635,2.48252 -0.0352,0.0565 -0.13544,0.21551 -0.22286,0.35331 -0.0874,0.13781 -0.20538,0.35082 -0.26206,0.47323 -0.31738,0.68539 -0.47951,1.07464 -0.60513,1.453 -0.0772,0.23256 -0.15012,0.42292 -0.16203,0.42292 -1.3e-4,0 -4.5e-4,2e-5 -5.7e-4,0 -0.0383,-0.007 -0.40595,-0.46265 -0.40595,-0.50364 0,-0.65419 -2.35723,-1.96526 -3.51846,-1.95694 -0.48023,0.003 -0.48024,0.003 -0.36531,-0.26469 0.16836,-0.39275 0.93656,-1.79553 1.06315,-1.94144 0.0598,-0.0689 0.23809,-0.32818 0.3963,-0.57617 1.14977,-1.80225 3.69431,-4.03869 4.60354,-4.07592 z m -1.94875,3.86387 c 0.0818,-0.003 0.15778,0.0367 0.21,0.13425 0.10877,0.20325 0.0115,0.49093 -0.21176,0.62706 -0.2638,0.16085 -0.34538,0.15208 -0.41999,-0.0441 -0.12307,-0.32371 0.1763,-0.70918 0.42175,-0.71715 z m 24.483,2.56792 c 0.94942,0 1.83979,0.26682 2.60448,0.73382 0.50389,1.33608 0.82345,2.78162 0.9406,4.31428 0.0499,0.65275 0.0854,0.83901 0.17957,0.93943 0.42193,0.44976 0.76669,0.93655 1.03536,1.44541 -0.77353,1.95381 -2.61646,3.31373 -4.76001,3.31373 -2.83793,0 -5.15017,-2.38356 -5.15017,-5.37333 0,-2.98977 2.31224,-5.37333 5.15017,-5.37334 z m -18.04243,1.00494 c 2.99862,0 5.44089,2.51932 5.44089,5.67839 0,3.15907 -2.44227,5.6775 -5.44089,5.6775 -2.72373,0 -4.98931,-2.07795 -5.38181,-4.8264 0.0182,-0.43413 0.007,-0.90854 -0.0313,-1.44336 0.28286,-2.87597 2.60444,-5.08613 5.4131,-5.08613 z m -10.35709,0.61508 c 0.24007,-0.001 0.47942,0.0451 0.71042,0.14039 0.54782,0.22594 0.79199,0.3833 1.21318,0.78207 0.84372,0.79881 1.3735,1.87547 1.61504,3.01453 -0.0567,0.3672 -0.086,0.74342 -0.086,1.12632 0,0.50621 0.0513,1.00071 0.14916,1.47816 -0.28609,1.75236 -1.24323,3.25231 -2.77148,3.65037 -0.38865,0.10124 -0.95738,0.11528 -1.21581,0.0301 -0.0861,-0.0284 -0.2766,-0.0861 -0.42292,-0.12839 -0.29511,-0.0854 -0.67441,-0.29628 -0.62384,-0.34688 0.0179,-0.0179 0.14103,-0.003 0.27346,0.0343 2.9342,0.81475 4.35539,-4.54833 2.03795,-7.69032 -0.49281,-0.66816 -1.41252,-1.17052 -2.04936,-1.18598 v -0.51504 c 0.36816,-0.25486 0.77007,-0.38781 1.17019,-0.38958 z m 32.70123,0.79202 c 0.53532,0.84659 0.84729,1.86297 0.84729,2.9613 0,0.15857 -0.007,0.31539 -0.0193,0.47029 -0.0505,-0.0569 -0.10214,-0.11337 -0.15501,-0.16933 -0.2959,-0.3132 -0.29577,-0.31308 -0.33664,-0.87684 -0.0575,-0.79363 -0.17277,-1.59878 -0.33634,-2.38542 z m -6.5172,0.60922 c -0.78468,-0.0143 -1.57377,0.52331 -2.03679,1.61943 -0.52048,1.23217 -0.22541,2.78652 0.71393,3.76151 0.3798,0.39421 0.51958,0.47255 1.06197,0.59548 1.83093,0.41497 3.1536,-2.07919 2.27136,-4.283 -0.44546,-1.11272 -1.22579,-1.67908 -2.01047,-1.69342 z m -27.46419,0.6803 c 2.40517,-0.003 3.05255,5.98904 0.71715,6.6377 -1.07175,0.29767 -2.13466,-0.83065 -2.35325,-2.49773 -0.0677,-0.51603 1.30191,-0.45289 1.80749,0.0833 0.45376,0.48129 0.83281,0.53801 1.17808,0.17607 0.78136,-0.81905 -0.0289,-2.15441 -0.94176,-1.55216 -0.24099,0.15901 -1.34119,0.14867 -1.92477,-0.0181 -0.81743,-0.23365 0.57371,-2.82797 1.51706,-2.8291 z m 12.67232,0.18396 c -0.5859,-0.0378 -1.17927,0.18272 -1.66213,0.70428 -1.50734,1.62809 -1.03845,4.61354 0.84641,5.38942 2.13509,0.87887 3.90766,-1.35484 3.13474,-3.95016 -0.38719,-1.30009 -1.34253,-2.08062 -2.31902,-2.14354 z m 14.00307,0.45685 c 0.14008,-0.005 0.28778,0.0532 0.42964,0.17782 0.36268,0.31841 0.37819,0.78995 0.0371,1.131 -0.49492,0.49492 -1.29626,-0.11594 -1.03829,-0.79144 0.12622,-0.33049 0.33803,-0.51018 0.5715,-0.51738 z m -13.32336,0.80372 c 0.0997,10e-4 0.20516,0.0299 0.3147,0.0866 0.454,0.23477 0.52244,0.90712 0.12605,1.23804 -0.59225,0.49444 -1.38208,-0.25391 -0.99499,-0.94265 0.1435,-0.25533 0.33479,-0.38481 0.55424,-0.38196 z m 9.79349,0.23368 c 3.8e-4,0.42991 0.04,0.85103 0.11523,1.25939 -0.77946,-0.68671 -1.56462,-1.04643 -2.33072,-1.08127 z m -2.88994,0.23223 c -0.59232,0.12364 -1.16816,0.44808 -1.71565,0.97189 -0.004,-0.28044 -0.0232,-0.55708 -0.0576,-0.82916 z m 0.50247,1.09034 c 0.52671,-0.0309 1.07624,0.16658 1.6399,0.59372 1.18873,0.90082 1.28339,1.41652 0.30827,1.6788 -1.85292,0.49839 -4.46147,-0.1961 -3.84925,-1.02483 0.58429,-0.79092 1.22388,-1.20801 1.90108,-1.24769 z m 14.29993,2.50299 c 0.39716,2.15179 -0.39645,4.38753 -2.31112,5.75618 -0.17226,0.12314 -0.34215,0.25436 -0.3773,0.2916 -0.15174,0.16075 -2.41494,1.30345 -2.74633,1.38662 -0.43659,0.10958 -0.44374,0.40066 -0.0304,1.26437 1.02405,2.13993 1.43136,3.82812 1.43136,5.93341 0,1.5232 -0.12577,2.04363 -0.46298,1.91542 -0.85269,-0.3242 -1.97497,0.41706 -2.5533,1.68641 -0.44007,0.96589 -1.03565,3.28876 -0.89965,3.50881 0.12863,0.20813 -1.5272,1.03635 -3.00576,1.50331 -1.25665,0.39689 -3.39511,0.75313 -4.52077,0.75313 -0.33624,0 -0.33948,-0.0379 -0.0576,-0.67592 1.49071,-3.37412 1.58934,-5.5256 0.2723,-5.93663 -0.0777,-0.0242 -0.15858,-0.0709 -0.17958,-0.10354 -0.25815,-0.40106 -1.49086,0.0578 -2.00755,0.74727 -0.22667,0.30247 -0.242,0.30027 -0.427,-0.06 -0.76116,-1.48209 -2.46347,-1.54577 -3.19119,-0.11933 -0.5996,1.17533 -0.48617,3.96063 0.23779,5.83486 0.0731,0.18925 0.1329,0.39364 0.13307,0.45422 -0.003,0.10503 -1.76169,0.14843 -2.78728,0.0687 -2.63173,-0.20453 -4.62507,-0.64197 -6.28146,-1.37843 -0.1819,-0.0809 -0.35031,-0.14683 -0.37408,-0.14683 -0.61921,0 -3.40349,-1.97949 -4.27597,-3.03997 -0.73929,-0.89857 -0.77628,-0.92847 -1.09736,-0.88444 -0.83209,0.11405 -2.65664,-2.62048 -2.65947,-3.98584 -8.4e-4,-0.42797 0.0751,-0.48727 0.38315,-0.29949 0.26947,0.16444 0.55643,0.16481 0.73177,0.002 0.19706,-0.1836 0.20268,-0.54338 0.0126,-0.81103 -0.77412,-1.08988 -0.82341,-3.30871 -0.0836,-3.7659 0.93539,-0.57811 2.49399,0.55469 1.93764,1.40826 -1.71906,2.63741 -0.7766,5.33245 1.97887,5.65879 0.29622,0.0351 0.29647,0.0351 0.3381,0.40303 0.24417,2.15813 4.46686,2.28407 7.35397,0.21935 1.11731,-0.79904 2.50562,-2.51923 2.50562,-3.10461 0,-0.0401 0.0521,-0.17752 0.11582,-0.30534 0.40958,-0.822 0.59757,-3.14491 0.28809,-3.55882 -0.43124,-0.57677 -0.76077,-0.3097 -0.84729,0.68644 -0.3274,3.76916 -2.65371,6.35435 -6.00859,6.67747 -1.7279,0.16642 -2.80241,-0.784 -1.48898,-1.31701 0.42737,-0.17343 1.24662,-0.68472 2.45151,-1.53023 0.41041,-0.288 0.45009,-0.30194 0.87684,-0.3106 1.44903,-0.0294 1.71587,-2.02571 0.27229,-2.03708 -0.36673,-0.003 -1.07517,0.55206 -0.95434,0.74756 0.0222,0.0359 0.0118,0.0652 -0.0231,0.0652 -0.0349,0 -0.0822,0.10567 -0.105,0.23486 -0.0446,0.25262 -0.0684,0.27754 -0.77857,0.816 -1.59156,1.20666 -2.64986,1.53713 -3.94489,1.2319 -0.56306,-0.1327 -1.50487,-0.68372 -1.37374,-0.80372 0.0142,-0.013 0.22299,-0.17156 0.46415,-0.35243 0.24116,-0.18087 0.66663,-0.5678 0.94557,-0.86016 0.50715,-0.53155 0.50711,-0.53165 0.77388,-0.3384 1.11641,0.80872 1.62897,0.61749 3.37633,-1.2591 0.18445,-0.19809 0.38982,-0.36004 0.45625,-0.36004 1.00001,0 1.28515,-1.54016 0.36735,-1.98443 -0.87821,-0.42511 -1.84888,0.666 -1.37697,1.54777 0.17985,0.33604 -1.44062,1.79582 -1.85809,1.67383 -0.63844,-0.18656 -0.72275,-0.40607 -0.24304,-0.63321 0.3528,-0.16703 0.52393,-0.43162 0.34921,-0.53961 -0.0421,-0.026 -0.0703,-0.072 -0.0626,-0.10266 0.0202,-0.0802 -0.25682,-0.21032 -0.45011,-0.21145 -0.12973,-5.7e-4 -0.39097,0.22131 -1.22138,1.03769 -1.34241,1.31977 -1.8992,1.70978 -1.99759,1.39978 -0.34346,-1.08214 1.5939,-3.72489 3.83199,-5.22739 0.56365,-0.37839 0.64008,-0.39532 1.03448,-0.22754 0.65736,0.27963 1.24243,0.17684 1.24243,-0.21819 0,-0.29025 -0.12865,-0.39923 -0.98944,-0.8391 -2.0086,-1.02641 -3.41442,-2.18572 -4.1736,-3.44155 -0.35141,-0.58129 -0.3452,-0.61546 0.0848,-0.47263 0.36323,0.12063 1.215,0.13666 1.56474,0.0295 1.43366,-0.43912 2.16483,-1.09428 2.91509,-2.61238 0.0199,-0.0403 0.0395,-0.0804 0.0585,-0.12049 1.18238,2.17287 3.43293,3.65124 6.02087,3.65124 2.45851,0 4.61219,-1.33435 5.83486,-3.3307 0.44836,0.93831 1.2752,1.73853 2.18245,2.08476 1.50823,0.57558 3.44743,-0.70854 3.61497,-2.3939 0.0162,-0.16324 0.0722,-0.21375 0.42584,-0.38461 0.29908,-0.14447 0.52435,-0.30858 0.67562,-0.49252 1.18501,1.70623 3.1192,2.82442 5.3087,2.82442 2.23278,0 4.20028,-1.16296 5.3783,-2.9265 z m -16.63212,0.50686 c 0.10684,-0.005 0.36117,0.0555 0.68585,0.16583 0.7906,0.26876 1.24186,0.34169 2.12512,0.34396 0.94253,0.002 0.92823,-0.008 0.6759,0.48989 -0.19596,0.38673 -0.5719,0.70904 -0.98095,0.84115 -0.94707,0.30587 -2.5609,-0.83741 -2.5609,-1.81421 0,-0.0165 0.0194,-0.0251 0.055,-0.0266 z m 19.71567,4.75124 c 2.14187,-0.0695 1.73105,2.98469 -1.34684,4.58453 -1.0754,0.55898 -1.02922,1.12949 0.084,1.03916 0.68774,-0.0558 0.88269,0.11884 0.83238,0.74581 -0.10926,1.36112 -2.46209,3.04469 -4.90158,3.50706 -0.27562,0.0522 -0.52047,0.095 -0.54429,0.0951 -0.099,2e-5 -0.11658,-0.16278 -0.10968,-1.01488 0.0143,-1.76626 -0.38783,-3.65863 -1.12368,-5.28881 -0.14202,-0.31462 -0.25826,-0.59856 -0.25826,-0.63116 0,-0.0873 2.14941,-1.148 2.97563,-1.46851 0.17226,-0.0668 0.43987,-0.18 0.5949,-0.25153 0.46851,-0.21617 1.32839,-0.55888 1.64311,-0.65485 0.16295,-0.0497 0.47905,-0.17232 0.70253,-0.27259 0.57098,-0.25618 1.0552,-0.3764 1.45183,-0.38928 z m -31.63311,5.36748 c 0.22048,0 0.28215,0.22538 0.1129,0.41239 -0.14204,0.15694 -0.2479,0.15187 -0.36676,-0.0178 -0.13285,-0.18968 -10e-4,-0.39455 0.25386,-0.39455 z m 1.16112,2.91276 c 0.23461,0 0.31407,0.28991 0.12606,0.46006 -0.13607,0.12317 -0.21007,0.13007 -0.31148,0.0286 -0.14494,-0.14495 -0.0145,-0.48873 0.18542,-0.48873 z m 22.40615,4.061 c 0.4283,-0.0217 0.63851,0.60794 0.3846,1.57673 -0.16784,0.64036 -0.16151,0.72957 0.0588,0.84349 0.30008,0.15517 0.42865,0.0671 0.859,-0.58904 1.2062,-1.83898 2.70676,-1.63935 1.72589,0.22959 -0.7664,1.4603 -2.8411,3.52385 -3.92588,3.90511 -0.52371,0.18407 -0.71678,0.12638 -0.95961,-0.2875 -0.49528,-0.84411 0.34632,-4.38237 1.26904,-5.33502 0.21957,-0.2267 0.42057,-0.33486 0.58817,-0.34336 z m -14.54444,0.38635 c 0.58068,0 0.95642,0.86404 1.11345,2.5612 0.0961,1.03807 0.6313,0.77291 1.12748,-0.55863 0.47075,-1.26328 1.21547,-2.01479 1.58931,-1.60363 0.46184,0.50795 0.32944,1.6737 -0.39251,3.45353 -0.12577,0.31007 -0.26262,0.64831 -0.30388,0.75166 -0.47152,1.18165 -1.09599,2.11541 -1.56737,2.34359 -0.79976,0.38717 -1.49026,-0.35362 -2.00958,-2.15582 -0.66619,-2.31189 -0.43695,-4.7919 0.4431,-4.7919 z" />
    </g>
  </g>
</svg>
